<svg width="128" height="128" viewBox="0 0 128 128" fill="none" xmlns="http://www.w3.org/2000/svg">
<path d="M1.52638e-06 2.82107e-06L128 4.34746e-06L128 128L1.52638e-06 2.82107e-06Z" fill="#45A069"/>
<path d="M85.0314 48.3644L111.489 22.2187C112.311 21.4062 113.357 21 114.628 21C115.898 21 116.945 21.4062 117.767 22.2187C118.589 23.0311 119 24.0651 119 25.3207C119 26.5763 118.589 27.6103 117.767 28.4227L88.1704 57.6706C87.2735 58.5569 86.2272 59 85.0314 59C83.8356 59 82.7892 58.5569 81.8924 57.6706L70.2332 46.1487C69.4111 45.3363 69 44.3022 69 43.0466C69 41.7911 69.4111 40.757 70.2332 39.9446C71.0553 39.1322 72.1016 38.7259 73.3722 38.7259C74.6427 38.7259 75.6891 39.1322 76.5112 39.9446L85.0314 48.3644Z" fill="white"/>
</svg>
