<svg width="104" height="104" viewBox="0 0 104 104" fill="none" xmlns="http://www.w3.org/2000/svg">
<path d="M76 52C76 65.2548 65.2548 76 52 76C38.7452 76 28 65.2548 28 52C28 38.7452 38.7452 28 52 28C65.2548 28 76 38.7452 76 52Z" fill="#FAECDC"/>
<path d="M43 0.776014C18.5707 5.03855 0 26.3506 0 52C0 57.4023 0.823807 62.6121 2.35265 67.5108L13.0896 61.3118C12.3772 58.324 12 55.206 12 52C12 33.0033 25.2426 17.0995 43 13.0166V0.776014Z" fill="#FAECDC"/>
<path d="M52 104C35.129 104 20.1345 95.9656 10.634 83.5142L21.1387 77.4493C28.4753 86.336 39.5762 92 52 92C64.4374 92 75.549 86.3236 82.8854 77.4201L93.3888 83.4843C83.8895 95.9527 68.8845 104 52 104Z" fill="#FAECDC"/>
<path d="M101.659 67.4743C103.18 62.5863 104 57.3889 104 52C104 26.3506 85.4293 5.03855 61 0.776014V13.0166C78.7574 17.0995 92 33.0033 92 52C92 55.1925 91.626 58.2976 90.9194 61.274L101.659 67.4743Z" fill="#FAECDC"/>
</svg>
